PathFileType	4	(X/Y/Z)	Patient4_TMGait_0pt6_02_right_45.trc.trc
DataRate	CameraRate	NumFrames	NumMarkers	Units	OrigDataRate	OrigDataStartFrame	OrigNumFrames
83.333333333333	83.333333333333	5	33	mm	83.333333333333	18	       141
Frame#	Time	Sacral			L.Shoulder			Chest			R.Shoulder			Neck			R.ASIS			L.ASIS			R.Thigh.Superior			R.Thigh.Lateral			R.Thigh.Inferior			R.Patella			L.Thigh.Superior			L.Thigh.Lateral			L.Thigh.Inferior			L.Patella			L.Shank.Superior			L.Shank.Lateral			L.Shank.Inferior			R.Shank.Superior			R.Shank.Lateral			R.Shank.Inferior			R.Heel			R.Midfoot.Superior			R.Midfoot.Lateral			R.Toe			L.Heel			L.Midfoot.Lateral			L.Midfoot.Superior			L.Toe			L.Elbow			L.Wrist			R.Elbow			R.Wrist			
		X1	Y1	Z1	X2	Y2	Z2	X3	Y3	Z3	X4	Y4	Z4	X5	Y5	Z5	X6	Y6	Z6	X7	Y7	Z7	X8	Y8	Z8	X9	Y9	Z9	X10	Y10	Z10	X11	Y11	Z11	X12	Y12	Z12	X13	Y13	Z13	X14	Y14	Z14	X15	Y15	Z15	X16	Y16	Z16	X17	Y17	Z17	X18	Y18	Z18	X19	Y19	Z19	X20	Y20	Z20	X21	Y21	Z21	X22	Y22	Z22	X23	Y23	Z23	X24	Y24	Z24	X25	Y25	Z25	X26	Y26	Z26	X27	Y27	Z27	X28	Y28	Z28	X29	Y29	Z29	X30	Y30	Z30	X31	Y31	Z31	X32	Y32	Z32	X33	Y33	Z33	

18	54.544000000000	843.250200129720	1007.979558324649	467.134463192693	1061.398541090599	1431.672231287091	302.744975060391	1144.422799149779	1352.108789068050	468.821660917611	1052.134530675901	1431.086297490640	635.018593833268	1049.310694731560	1489.704611818813	454.418231347241	1064.164874868438	940.094131941270	593.417956834735	1059.892060824058	957.866756346437	315.128338039910	1144.371301754288	779.149451205078	561.723492235977	1112.411383302508	655.938273875002	640.731975906430	1200.939362324443	622.408995286786	558.170462064273	1240.710178974166	539.406495397133	575.859729676393	1066.100652632837	733.464718724717	348.206756367579	952.754812571239	637.229986635282	283.869782347286	1012.105869653058	545.648813640838	350.882186154060	998.201046587125	480.271499299964	361.278421140535	969.776776355182	413.293963135153	353.011379386667	875.242788288420	302.718244240406	302.584688074323	917.919633347466	191.032481181574	378.690875431580	1225.065144317564	450.303487041127	588.365119799872	1175.764739386714	337.480339340578	657.066424718687	1243.661612504889	251.118813044168	603.812647505992	1153.509582160237	61.707259516945	582.984835477972	1316.950455487451	138.966226633289	616.426481322988	1241.318811898304	60.142173951998	652.341343592756	1443.016775622192	102.805395057771	635.013924471147	785.154848640299	38.038004417298	424.790038186128	857.616817411170	35.473698240844	342.653663387177	941.185725082692	95.802698339354	368.454136642927	1069.716311990798	42.829968028437	338.650390355864	1163.720862181478	1138.882635535698	123.710901428447	1398.008926169229	1127.375117741447	224.150563969652	864.452973002006	1149.260764514875	750.089958468484	785.586025192509	901.405649153502	771.989882735606	
19	54.556000000000	845.073498253902	1006.227346420387	469.196929056978	1061.276836696379	1430.555498074154	304.379344363195	1144.826571501846	1351.326938799082	470.323869763534	1052.665458624115	1430.191228005740	636.626778070784	1049.217702352170	1488.547119754152	456.019038496007	1066.097123866250	938.333186998212	594.961980384555	1061.431350743301	956.875550443157	316.989419387345	1144.132484900747	774.320404578857	564.169784748470	1108.460045184341	651.276115455127	641.953447881552	1196.730947304417	616.646306614510	559.677327394210	1234.413888970464	534.311642428019	576.535023142262	1066.387065075003	731.887117083582	349.651257670853	952.368413171095	636.354419186479	285.230042157903	1010.881970301728	544.308829392801	352.197020406240	996.353368072712	478.643024683504	362.520646257342	967.073618903598	411.892694628343	354.102252830974	871.069810113923	302.661530108866	303.377713794907	912.075317010881	190.253713752080	379.177156850313	1219.890164159002	445.301860745359	588.993665789005	1171.195514249626	331.537770532810	656.374606902696	1240.643303242271	246.337863841847	603.067915974107	1152.933971417547	56.246348443930	580.197734635197	1315.289610765244	134.665198484622	614.974665547259	1240.153847520156	55.411819131390	650.285203602804	1441.635194305014	99.674098052487	634.549529275723	777.897037419068	37.938684030346	424.738110725464	850.381496850930	35.410222532402	342.659228100290	933.990239148643	95.672030055612	368.602592822250	1062.505633381885	42.586837141773	338.653673854090	1164.824360524034	1138.813338880996	125.021848895011	1398.535213091746	1131.857127852983	226.637676329481	862.576439920867	1150.807629934772	751.530881631350	781.487386198250	903.500286063484	772.923410182777	
20	54.568000000000	847.046481565179	1004.500655074563	471.429710928049	1061.088410218122	1429.430924804726	306.105897226969	1145.299989330779	1350.613525768314	471.903689199927	1053.271705069251	1429.271514929285	638.373948183759	1049.106621846797	1487.401059538221	457.743714888679	1068.193743052115	936.602214897059	596.661561950021	1063.169841692027	955.844572317933	319.122335365101	1144.323878101627	769.758239837481	566.757760108257	1104.794814858196	646.852411509524	642.854908959798	1193.025162956284	611.364283280955	561.108013276822	1228.354582882096	529.250872982941	577.044948776582	1067.045528822391	730.251778876611	351.251243604126	952.397317425763	635.379632253173	286.836293753461	1010.193242645581	542.869364781287	353.685098679602	995.087763913481	476.843626078747	363.946803599946	964.811142055186	410.341866710898	355.371805944637	867.178656756335	302.638851192495	304.310983837449	906.368939329605	189.429694510612	379.709406552089	1214.409164066451	440.146719759783	589.304110180251	1165.314270362945	325.872243482016	655.191009424859	1235.555777821471	241.335542070678	601.900897542168	1148.539784112596	51.824312690743	576.996384516276	1310.455978161516	129.742334394385	613.016875947845	1235.093465828820	51.007546349881	647.851612929864	1436.678968529539	94.687028633998	633.604878918725	770.625676232953	37.846525077618	424.654418574252	843.161888948209	35.323996567665	342.664089587950	926.817024521134	95.548377059231	368.745694039620	1055.323998416974	42.324960299877	338.650217771991	1165.352698496398	1138.295228419024	126.545385207118	1398.574104785004	1135.093868189865	229.052775219344	861.696552530229	1151.498876425481	752.981964418608	779.062521807719	904.488864263100	773.824142288660	
21	54.580000000000	849.125640590740	1002.869013982414	473.812015948577	1060.875705900793	1428.326235804065	307.925850307914	1145.868918759416	1349.983166020012	473.568150703136	1053.968240701521	1428.348726926527	640.262364985145	1049.026667355304	1486.302310040954	459.592028014144	1070.414154547932	934.952607646706	598.514000384505	1065.054384454746	954.833312116369	321.531494173802	1144.913007653092	765.495197256138	569.478747091404	1101.408780838956	642.741620440036	643.463154382404	1189.816312675682	606.616890715193	562.470241700148	1222.584764757242	524.335711323102	577.367534653490	1068.034109535844	728.603431275413	352.967509372526	952.773532047158	634.341184260429	288.676514841125	1010.016121042234	541.357864929607	355.299459611245	994.409049767236	474.891179470928	365.497619612208	962.965501385097	408.682731262790	356.782209299670	863.541115694982	302.696521701073	305.376273378129	900.802128088989	188.608061379206	380.265902985465	1208.778353759126	435.000908729947	589.299425325001	1158.537323671408	320.565601124091	653.672196978137	1228.885150762451	236.240959902434	600.389539471801	1141.026276202922	48.351016607347	573.668009548632	1303.122156041215	124.399189207349	610.646115244380	1226.929744169701	47.023006193015	645.251215309799	1428.928147362840	88.233492473608	632.177225585130	763.344092323365	37.823239750503	424.536323286533	835.964238598543	35.236098393132	342.669412681737	919.689887264632	95.442246442837	368.864931186150	1048.179090886025	42.046067152753	338.634257541102	1165.296557603550	1137.307639256889	128.278916207370	1398.156897261782	1137.063920475882	231.389696941971	861.841187460769	1151.303029547946	754.484000012742	778.350928343170	904.352393741463	774.699921266596	
22	54.592000000000	851.255050608773	1001.408981323867	476.314712927345	1060.685906547752	1427.280503261567	309.838446151177	1146.555935452584	1349.455986462945	475.321809758537	1054.771515374406	1427.457949266812	642.288320358007	1049.034619126670	1485.297369522541	461.558698228491	1072.707901990873	933.445481252926	600.510186258343	1067.015712215753	953.923365001982	324.227294371074	1145.830744471139	761.557985973746	572.309962217536	1098.298637262420	639.030641279756	643.853611237235	1187.050391349510	602.439972211781	563.766226810685	1217.143647881287	519.697000728818	577.502049084553	1069.305475774514	727.009744108759	354.762260555060	953.440882933157	633.283151444531	290.727989408134	1010.342856597105	539.818577435288	356.992384269796	994.338588189377	472.817244309049	367.104547987313	961.531448798233	406.969615087145	358.286155922866	860.147521245613	302.896483898326	306.559116729515	895.390148572967	187.851402434116	380.821106071408	1203.164816771586	430.059242695578	589.024175663295	1151.338406779350	315.726872408746	652.016376035859	1221.201613131188	231.245949244954	598.649925801636	1131.280509115607	45.730525957172	570.494849286904	1294.076883407339	118.932891837503	608.003948087153	1216.623308901148	43.577264643273	642.704703941347	1419.285200885282	80.888809798005	630.338163255119	756.063271535855	37.965290191225	424.383100084928	828.796814276552	35.187094501488	342.676187518583	912.644036941285	95.366751221097	368.939080745223	1041.076971091773	41.751181407751	338.600001078883	1164.649497716383	1135.847649135249	130.225769748907	1397.309920030344	1137.746113501069	233.640279152645	863.028607296247	1150.232321908543	756.071748185309	779.383055622926	903.112837276039	775.564378056748	
